<?xml version="1.0" encoding="UTF-8"?>
<!-- Created with Inkscape (http://www.inkscape.org/) -->
<svg width="65.092mm" height="60mm" version="1.1" viewBox="0 0 65.092 60" xmlns="http://www.w3.org/2000/svg">
 <g transform="translate(-69.041 -108.22)">
  <path d="m76.62 135.97c0.3826 0 0.6929 0.1474 0.6929 0.3291s-0.3103 0.3291-0.6929 0.3291-0.6929-0.1474-0.6929-0.3291 0.3103-0.3291 0.6929-0.3291zm-0.698 0.5233h0.018c0.063 0.1509 0.3434 0.2649 0.6796 0.2649 0.3365 0 0.6168-0.114 0.6797-0.2649h0.014v0.4246c-0.059 0.3656-1.2438 0.4581-1.3914 0v-0.4246zm-0.701 0.4988c0.3826 0 0.6928 0.1473 0.6928 0.3291 0 0.1817-0.3102 0.3292-0.6928 0.3292-0.3827 0-0.693-0.1475-0.693-0.3292 0-0.1818 0.3103-0.3291 0.693-0.3291zm-0.6981 0.5233h0.018c0.063 0.151 0.3434 0.265 0.6798 0.265 0.3363 0 0.6167-0.114 0.6795-0.265h0.014v0.4247c-0.059 0.3655-1.2438 0.458-1.3913 0zm-0.2921 0.6747c0.3826 0 0.6929 0.1474 0.6929 0.3291s-0.3103 0.3291-0.6929 0.3291-0.693-0.1474-0.693-0.3291 0.3104-0.3291 0.693-0.3291zm-0.6981 0.5233h0.018c0.063 0.151 0.3433 0.2649 0.6797 0.2649s0.6167-0.1139 0.6797-0.2649h0.014v0.4247c-0.059 0.3655-1.2437 0.458-1.3913 0v-0.4247zm-0.7372 0.736c0.4667 0 0.8451 0.1473 0.8451 0.3292 0 0.1816-0.3784 0.3291-0.8451 0.3291s-0.8451-0.1475-0.8451-0.3291c0-0.1819 0.3784-0.3292 0.8451-0.3292zm-0.8514 0.5234h0.022c0.077 0.151 0.4187 0.2649 0.8289 0.2649 0.4103 0 0.7522-0.1139 0.8289-0.2649h0.017v0.4246c-0.072 0.3656-1.517 0.4581-1.697 0v-0.4246zm-0.3617 0.9158c0.5273 0 0.9549 0.1474 0.9549 0.3291 0 0.1818-0.4276 0.3292-0.9549 0.3292-0.5274 0-0.955-0.1474-0.955-0.3292 0-0.1817 0.4276-0.3291 0.955-0.3291zm-0.9621 0.5233h0.025c0.087 0.1511 0.4731 0.265 0.9367 0.265s0.8501-0.1139 0.9367-0.265h0.019v0.4247c-0.081 0.3656-1.7143 0.4581-1.9177 0v-0.4247zm0.1689 1.173c0.6888 0 1.2476 0.1924 1.2476 0.43 0 0.2375-0.5588 0.4299-1.2476 0.4299-0.689 0-1.2478-0.1924-1.2478-0.4299 0-0.2376 0.5588-0.43 1.2478-0.43zm-1.257 0.6837h0.033c0.1132 0.1972 0.6182 0.3461 1.2238 0.3461 0.6057 0 1.1106-0.1489 1.2238-0.3461h0.025v0.5548c-0.1057 0.4777-2.2397 0.5985-2.5054 0v-0.5548zm0.9044 1.2952c0.7643 0 1.3842 0.2136 1.3842 0.4771 0 0.2634-0.6199 0.477-1.3842 0.477-0.7644 0-1.3843-0.2136-1.3843-0.477 0-0.2635 0.6199-0.4771 1.3843-0.4771zm-1.3946 0.7586h0.036c0.1257 0.2188 0.686 0.384 1.3579 0.384 0.6721 0 1.2322-0.1652 1.3579-0.384h0.027v0.6155c-0.1173 0.53-2.485 0.664-2.7798 0v-0.6155zm1.6158 2.0749c0.8396 0 1.5208 0.2347 1.5208 0.5242 0 0.2894-0.6812 0.5241-1.5208 0.5241-0.84 0-1.5211-0.2347-1.5211-0.5241 0-0.2895 0.6811-0.5242 1.5211-0.5242zm-1.5323 0.8334h0.04c0.138 0.2405 0.7536 0.422 1.4918 0.422 0.7384 0 1.3538-0.1815 1.4917-0.422h0.03v0.6764c-0.1288 0.5822-2.7301 0.7295-3.054 0v-0.6764zm2.5049 2.3149c1.1414 0 2.0671 0.3191 2.0671 0.7125s-0.9257 0.7125-2.0671 0.7125c-1.1416 0-2.0674-0.3191-2.0674-0.7125s0.9258-0.7125 2.0674-0.7125zm-2.0827 1.1329h0.055c0.1876 0.3269 1.0243 0.5736 2.0278 0.5736 1.0036 0 1.84-0.2467 2.0277-0.5736h0.041v0.9192c-0.1751 0.7915-3.7109 0.9916-4.1512 0v-0.9192zm5.1743 2.3754c1.5938 0 2.8867 0.4454 2.8867 0.9949 0 0.5494-1.2929 0.9948-2.8867 0.9948-1.5942 0-2.887-0.4454-2.887-0.9948 0-0.5495 1.2928-0.9949 2.887-0.9949zm-2.9083 1.5819h0.076c0.262 0.4563 1.4304 0.8009 2.8317 0.8009 1.4015 0 2.5697-0.3446 2.8316-0.8009h0.057v1.2836c-0.2445 1.1052-5.182 1.3847-5.7968 0v-1.2836zm8.5612 1.8812c2.3479 0 4.2524 0.6563 4.2524 1.4656 0 0.8094-1.9045 1.4656-4.2524 1.4656-2.3485 0-4.253-0.6562-4.253-1.4656 0-0.8093 1.9045-1.4656 4.253-1.4656zm-4.2844 2.3304h0.1123c0.386 0.6724 2.1071 1.1799 4.1714 1.1799 2.0647 0 3.7855-0.5075 4.1714-1.1799h0.084v1.891c-0.3601 1.6281-7.634 2.04-8.5396 0v-1.891zm12.753 2.3468c1.8203 0 3.2968 0.5088 3.2968 1.1362 0 0.6276-1.4765 1.1364-3.2968 1.1364-1.8207 0-3.2972-0.5088-3.2972-1.1364 0-0.6274 1.4765-1.1362 3.2972-1.1362zm-3.3215 1.8068h0.087c0.2993 0.5212 1.6336 0.9147 3.234 0.9147 1.6006 0 2.9347-0.3935 3.2339-0.9147h0.066v1.4659c-0.2792 1.2623-5.9184 1.5816-6.6205 0v-1.4659zm11.483 0.47c1.5706 0 2.8446 0.439 2.8446 0.9804s-1.274 0.9803-2.8446 0.9803c-1.571 0-2.845-0.4389-2.845-0.9803s1.274-0.9804 2.845-0.9804zm-2.8659 1.5589h0.075c0.2582 0.4497 1.4095 0.7892 2.7904 0.7892 1.3811 0 2.5322-0.3395 2.7904-0.7892h0.056v1.2649c-0.2409 1.0892-5.1065 1.3647-5.7124 0v-1.2649zm32.885-30.06c-0.3826 0-0.6929 0.1474-0.6929 0.3291s0.3103 0.3291 0.6929 0.3291c0.3827 0 0.6929-0.1474 0.6929-0.3291s-0.3102-0.3291-0.6929-0.3291zm0.698 0.5233h-0.018c-0.063 0.1509-0.3434 0.2649-0.6796 0.2649-0.3364 0-0.6168-0.114-0.6797-0.2649h-0.014v0.4246c0.059 0.3656 1.2438 0.4581 1.3914 0v-0.4246zm0.4957 0.4988c-0.3826 0-0.6929 0.1473-0.6929 0.3291 0 0.1817 0.3103 0.3292 0.6929 0.3292s0.693-0.1475 0.693-0.3292c0-0.1818-0.3104-0.3291-0.693-0.3291zm0.6981 0.5233h-0.018c-0.063 0.151-0.3434 0.265-0.6797 0.265-0.3364 0-0.6167-0.114-0.6796-0.265h-0.014v0.4247c0.059 0.3655 1.2438 0.458 1.3914 0v-0.4247zm0.3652 0.6747c-0.3826 0-0.6929 0.1474-0.6929 0.3291s0.3103 0.3291 0.6929 0.3291 0.6929-0.1474 0.6929-0.3291-0.3103-0.3291-0.6929-0.3291zm0.698 0.5233h-0.018c-0.063 0.151-0.3433 0.2649-0.6797 0.2649s-0.6167-0.1139-0.6796-0.2649h-0.014v0.4247c0.059 0.3655 1.2438 0.458 1.3914 0v-0.4247zm0.4 0.736c-0.4666 0-0.845 0.1473-0.845 0.3292 0 0.1816 0.3784 0.3291 0.845 0.3291s0.8451-0.1475 0.8451-0.3291c0-0.1819-0.3785-0.3292-0.8451-0.3292zm0.8514 0.5234h-0.022c-0.077 0.151-0.4188 0.2649-0.829 0.2649-0.4103 0-0.7522-0.1139-0.8289-0.2649h-0.017v0.4246c0.072 0.3656 1.5169 0.4581 1.697 0v-0.4246zm0.3617 0.9158c-0.5273 0-0.9549 0.1474-0.9549 0.3291 0 0.1818 0.4276 0.3292 0.9549 0.3292 0.5274 0 0.955-0.1474 0.955-0.3292 0-0.1817-0.4276-0.3291-0.955-0.3291zm0.9621 0.5233h-0.025c-0.087 0.1511-0.4731 0.265-0.9367 0.265s-0.8501-0.1139-0.9367-0.265h-0.019v0.4247c0.081 0.3656 1.7142 0.4581 1.9177 0v-0.4247zm-0.1688 1.173c-0.6889 0-1.2477 0.1924-1.2477 0.43 0 0.2375 0.5588 0.4299 1.2477 0.4299s1.2477-0.1924 1.2477-0.4299c0-0.2376-0.5588-0.43-1.2477-0.43zm1.2569 0.6837h-0.033c-0.1133 0.1972-0.6182 0.3461-1.2239 0.3461s-1.1106-0.1489-1.2238-0.3461h-0.025v0.5548c0.1057 0.4777 2.2398 0.5985 2.5054 0v-0.5548zm-0.9044 1.2952c-0.7643 0-1.3842 0.2136-1.3842 0.4771 0 0.2634 0.6199 0.477 1.3842 0.477 0.7644 0 1.3844-0.2136 1.3844-0.477 0-0.2635-0.62-0.4771-1.3844-0.4771zm1.3946 0.7586h-0.036c-0.1258 0.2188-0.6859 0.384-1.3579 0.384-0.6721 0-1.2321-0.1652-1.3578-0.384h-0.028v0.6155c0.1174 0.53 2.485 0.664 2.7798 0v-0.6155zm-1.6157 2.0749c-0.8397 0-1.5208 0.2347-1.5208 0.5242 0 0.2894 0.6811 0.5241 1.5208 0.5241 0.8398 0 1.5209-0.2347 1.5209-0.5241 0-0.2895-0.6811-0.5242-1.5209-0.5242zm1.5322 0.8334h-0.04c-0.1379 0.2405-0.7536 0.422-1.4918 0.422-0.7383 0-1.3537-0.1815-1.4917-0.422h-0.03v0.6764c0.1287 0.5822 2.73 0.7295 3.0539 0v-0.6764zm-2.5048 2.3149c-1.1414 0-2.0672 0.3191-2.0672 0.7125s0.9258 0.7125 2.0672 0.7125c1.1416 0 2.0673-0.3191 2.0673-0.7125s-0.9257-0.7125-2.0673-0.7125zm2.0826 1.1329h-0.055c-0.1876 0.3269-1.0242 0.5736-2.0277 0.5736-1.0037 0-1.8402-0.2467-2.0278-0.5736h-0.041v0.9192c0.1751 0.7915 3.711 0.9916 4.1512 0v-0.9192zm-5.1743 2.3754c-1.5939 0-2.8867 0.4454-2.8867 0.9949 0 0.5494 1.2928 0.9948 2.8867 0.9948 1.5942 0 2.887-0.4454 2.887-0.9948 0-0.5495-1.2928-0.9949-2.887-0.9949zm2.9083 1.5819h-0.076c-0.2619 0.4563-1.4303 0.8009-2.8316 0.8009-1.4015 0-2.5696-0.3446-2.8316-0.8009h-0.057v1.2836c0.2445 1.1052 5.182 1.3847 5.7968 0v-1.2836zm-8.5611 1.8812c-2.348 0-4.2525 0.6563-4.2525 1.4656 0 0.8094 1.9045 1.4656 4.2525 1.4656 2.3484 0 4.253-0.6562 4.253-1.4656 0-0.8093-1.9046-1.4656-4.253-1.4656zm4.2843 2.3304h-0.1123c-0.3859 0.6724-2.1071 1.1799-4.1714 1.1799-2.0647 0-3.7855-0.5075-4.1714-1.1799h-0.084v1.891c0.36 1.6281 7.6339 2.04 8.5395 0v-1.891zm-12.753 2.3468c-1.8204 0-3.2969 0.5088-3.2969 1.1362 0 0.6276 1.4765 1.1364 3.2969 1.1364 1.8206 0 3.2971-0.5088 3.2971-1.1364 0-0.6274-1.4765-1.1362-3.2971-1.1362zm3.3214 1.8068h-0.087c-0.2992 0.5212-1.6336 0.9147-3.234 0.9147-1.6006 0-2.9347-0.3935-3.2339-0.9147h-0.065v1.4659c0.2792 1.2623 5.9183 1.5816 6.6204 0v-1.4659zm-11.483 0.47c-1.5707 0-2.8447 0.439-2.8447 0.9804s1.274 0.9803 2.8447 0.9803c1.5709 0 2.8449-0.4389 2.8449-0.9803s-1.274-0.9804-2.8449-0.9804zm2.8658 1.5589h-0.075c-0.2583 0.4497-1.4096 0.7892-2.7905 0.7892-1.3811 0-2.5322-0.3395-2.7904-0.7892h-0.056v1.2649c0.24091 1.0892 5.1066 1.3647 5.7124 0v-1.2649zm-13.702-34.975h-3.713v2.0282h3.4189c0.2515 0 0.4392 0.057 0.5633 0.1719 0.1241 0.1146 0.1859 0.2658 0.1859 0.4535 0 0.1879-0.061 0.3409-0.1831 0.4592-0.1221 0.1184-0.3107 0.1775-0.5661 0.1775h-3.4189v2.3494h3.8407c0.2588 0 0.4541 0.061 0.5855 0.1832 0.1311 0.1219 0.1972 0.2845 0.1972 0.4873 0 0.1952-0.066 0.3539-0.1972 0.4761-0.1314 0.1219-0.3267 0.1832-0.5855 0.1832h-4.4792c-0.3588 0-0.617-0.081-0.7742-0.2426-0.1573-0.1614-0.236-0.4226-0.236-0.783v-6.2089c0-0.2403 0.035-0.4367 0.1055-0.5888 0.07-0.152 0.1803-0.2627 0.3303-0.3324 0.1498-0.069 0.3413-0.1041 0.5743-0.1041h4.3514c0.2627 0 0.458 0.059 0.5857 0.1773 0.1273 0.1185 0.1914 0.2733 0.1914 0.465 0 0.1953-0.064 0.3521-0.1914 0.4705-0.1277 0.1186-0.3229 0.1775-0.5855 0.1775zm20.124 4.4903c0 0.4996-0.1268 0.9485-0.3802 1.3466-0.2533 0.3981-0.62431 0.7099-1.1126 0.9351-0.4885 0.2252-1.0677 0.3381-1.7373 0.3381-0.803 0-1.4654-0.1539-1.9871-0.4621-0.3699-0.2215-0.6705-0.5174-0.9016-0.8874-0.2316-0.3697-0.3471-0.7296-0.3471-1.0788 0-0.2027 0.069-0.3765 0.2081-0.5211 0.1389-0.1448 0.3154-0.2171 0.52979-0.2171 0.1739 0 0.3211 0.056 0.4414 0.1692 0.1202 0.1127 0.2228 0.2799 0.308 0.5014 0.1035 0.263 0.2155 0.4827 0.3358 0.6592 0.1202 0.1765 0.2895 0.3221 0.5079 0.4366 0.2182 0.1145 0.5052 0.1717 0.8603 0.1717 0.4884 0 0.8854-0.1153 1.1904-0.3463 0.3054-0.2312 0.458-0.5194 0.458-0.8649 0-0.2744-0.082-0.4966-0.247-0.6679-0.1647-0.1706-0.3775-0.3011-0.6384-0.3916-0.26079-0.09-0.6096-0.1859-1.0462-0.2871-0.5845-0.1389-1.0741-0.3015-1.468-0.4873-0.39411-0.186-0.707-0.4396-0.938-0.7608-0.2314-0.3212-0.3471-0.7201-0.3471-1.1972 0-0.4543 0.12219-0.8583 0.36629-1.2115 0.24431-0.3529 0.5974-0.6243 1.06-0.8141 0.46251-0.1896 1.0065-0.2844 1.6318-0.2844 0.49951 0 0.9314 0.063 1.296 0.1886 0.3643 0.126 0.6669 0.2931 0.9074 0.5015 0.2405 0.2083 0.4163 0.4274 0.5272 0.6565 0.1111 0.229 0.1666 0.4526 0.1666 0.6703 0 0.1992-0.069 0.3786-0.2082 0.5381-0.1386 0.1596-0.3118 0.2395-0.519 0.2395-0.1885 0-0.3321-0.048-0.43-0.1438-0.098-0.096-0.2045-0.2525-0.3191-0.4704-0.1482-0.3116-0.3257-0.5551-0.5329-0.7296-0.2073-0.1748-0.5401-0.2621-0.9991-0.2621-0.4255 0-0.7685 0.095-1.0295 0.2844-0.2609 0.1898-0.3912 0.418-0.3912 0.6846 0 0.1653 0.044 0.308 0.1332 0.4283 0.089 0.1204 0.2111 0.2235 0.3663 0.3099 0.1553 0.086 0.3125 0.1541 0.4718 0.2028 0.159 0.049 0.4217 0.1204 0.7881 0.2141 0.4586 0.109 0.8742 0.2292 1.246 0.3607s0.6882 0.2912 0.949 0.4787c0.261 0.188 0.4644 0.4254 0.6107 0.7127 0.1463 0.288 0.2195 0.64 0.21951 1.0569zm-9.5096-5.7202h0.3618c0.3504 0 0.6369 0.292 0.6369 0.6491v6.9012c0 0.357-0.2865 0.6491-0.6369 0.6491h-0.3618c-0.3502 0-0.63689-0.2921-0.63689-0.6491v-6.9012c0-0.3571 0.28669-0.6491 0.63689-0.6491zm-5.3847 26.822-0.11259 1.6599c6.8545 0.4752 13.874-1.9494 19.104-7.2794 0.6395-0.6521 1.2372-1.3334 1.7878-2.0357l-1.7807-1.4566c-4.1193 5.5488-10.65 9.1355-18.001 9.1355-0.3342 0-0.6661-0.01-0.9969-0.024zm-2.8591 1.3056 0.2837-1.5703c-6.0679-0.9843-11.33-4.4353-14.766-9.3123l-1.0991 0.7995c0.7778 1.1066 1.6495 2.1626 2.626 3.1577 3.6645 3.735 8.2031 6.0435 12.955 6.9254zm9.5725-46.527 0.5924-2.5258c-8.0379-1.9446-16.863 0.2703-23.122 6.6502-6.0786 6.1962-8.3055 14.855-6.6828 22.852l1.3567-0.2871c-0.2758-1.4366-0.422-2.9207-0.422-4.4395 0-12.698 10.103-22.996 22.561-22.996 1.9751 0 3.8908 0.2598 5.7165 0.746zm16.442 26.586 2.2451 0.5246c0.4111-1.8393 0.6148-3.7161 0.6155-5.5913h-2.4707c0.01 0.2437 0.013 0.4877 0.013 0.7331 0 1.4824-0.1394 2.9319-0.4026 4.3362zm-5.6628-20.02 1.9933-1.9167c-0.1628-0.1794-0.3255-0.3496-0.4952-0.5225-2.6745-2.7262-5.8134-4.6894-9.1567-5.8981l-0.8733 2.5014c3.2751 1.2603 6.187 3.2747 8.5319 5.8359zm-4.4022 27.022c-3.464 3.5309-8.0981 5.1371-12.628 4.819l-0.2734 4.0259c0.268 0.011 0.5368 0.018 0.8075 0.018 6.4871 0 12.247-3.1786 15.863-8.0906l-2.5852-2.115c-0.3653 0.4634-0.7627 0.9134-1.1838 1.3426zm-15.169 8.6202 0.729-4.0351c-3.1386-0.582-6.1413-2.1107-8.5665-4.5828-0.6466-0.659-1.2215-1.3538-1.7337-2.0853l-3.4594 2.5165c3.0303 4.299 7.6755 7.336 13.031 8.1867zm-7.8392-32.072c4.1462-4.2259 9.9748-5.6914 15.287-4.4035l0.7066-3.0136c-1.621-0.437-3.3231-0.6709-5.0787-0.6709-10.944 0-19.82 9.0462-19.82 20.201 0 1.3241 0.1265 2.6182 0.3653 3.8713l4.1172-0.8712c-1.0772-5.2916 0.3968-11.01 4.4224-15.113zm27.194 15.076 3.2057 0.749c0.2194-1.2031 0.3353-2.4436 0.3353-3.7114 0-0.2465-0.01-0.4914-0.014-0.7358h-3.1186c0 1.2407-0.134 2.4807-0.4079 3.7014zm-4.1852-15.071c0.1115 0.1136 0.2186 0.2273 0.3278 0.3432l2.0806-2.0007c-2.0502-2.2428-4.5951-4.0095-7.4576-5.1196l-1.0024 2.8711c2.2112 0.8004 4.2818 2.102 6.0516 3.906zm-9.9166 13.979c0 0.4996-0.1266 0.9485-0.38 1.3466-0.2535 0.3981-0.6244 0.7099-1.1128 0.9351s-1.0676 0.3381-1.7372 0.3381c-0.803 0-1.4653-0.1539-1.987-0.4621-0.37-0.2215-0.6707-0.5174-0.902-0.8874-0.2313-0.3697-0.3468-0.7296-0.3468-1.0788 0-0.2027 0.069-0.3765 0.2081-0.5211 0.1389-0.1448 0.3154-0.2171 0.5301-0.2171 0.1739 0 0.3209 0.056 0.4412 0.1692 0.1203 0.1127 0.2229 0.2799 0.3079 0.5014 0.1035 0.263 0.2156 0.4827 0.3359 0.6592 0.1201 0.1765 0.2896 0.3221 0.508 0.4366 0.2182 0.1145 0.5052 0.1717 0.8604 0.1717 0.4882 0 0.88509-0.1153 1.1903-0.3463 0.3054-0.2312 0.4579-0.5194 0.4579-0.8649 0-0.2744-0.082-0.4966-0.2471-0.6679-0.1646-0.1706-0.3775-0.3011-0.6382-0.3916-0.2608-0.09-0.60981-0.1859-1.0463-0.2871-0.5847-0.1389-1.0741-0.3015-1.468-0.4873-0.3942-0.186-0.7067-0.4396-0.938-0.7608-0.2314-0.3212-0.347-0.7201-0.347-1.1972 0-0.4543 0.1221-0.8583 0.3662-1.2115 0.2444-0.3529 0.5976-0.6243 1.0603-0.8141 0.4624-0.1896 1.0062-0.2844 1.6316-0.2844 0.4995 0 0.9316 0.063 1.2961 0.1886 0.36429 0.126 0.6668 0.2931 0.9075 0.5015 0.24019 0.2083 0.4162 0.4274 0.52719 0.6565 0.1111 0.229 0.16651 0.4526 0.16651 0.6703 0 0.1992-0.07 0.3786-0.2083 0.5381-0.13891 0.1596-0.3117 0.2395-0.5187 0.2395-0.189 0-0.3323-0.048-0.43021-0.1438-0.098-0.096-0.2046-0.2525-0.31919-0.4704-0.148-0.3116-0.32571-0.5551-0.53281-0.7296-0.2074-0.1748-0.5404-0.2621-0.9991-0.2621-0.4256 0-0.7686 0.095-1.0294 0.2844-0.2608 0.1898-0.3912 0.418-0.3912 0.6846 0 0.1653 0.044 0.308 0.1332 0.4283 0.089 0.1204 0.211 0.2235 0.3662 0.3099 0.1553 0.086 0.3125 0.1541 0.4719 0.2028 0.1591 0.049 0.4218 0.1204 0.7879 0.2141 0.4588 0.109 0.8743 0.2292 1.2462 0.3607 0.3718 0.1316 0.6881 0.2912 0.9489 0.4787 0.2611 0.188 0.4644 0.4254 0.6106 0.7127 0.1461 0.2875 0.2192 0.64 0.2192 1.0569zm-1.3415-17.039c1.9194 0 3.4909 1.4921 3.618 3.3794 0.4456 0.097 0.8527 0.2048 1.29 0.3399 1.5804 0.4959 3.0974 1.2301 4.4301 2.2335 1.3344 0.995 2.4889 2.2572 3.2947 3.7285 0.7956 1.4708 1.2368 3.1492 1.1658 4.8117-0.015-0.4145-0.058-0.8271-0.1272-1.2339-0.067-0.4072-0.1597-0.809-0.2795-1.2017-0.2383-0.7862-0.5813-1.5352-1.0051-2.2293-0.8416-1.3955-2.0008-2.5693-3.3124-3.4991-1.3178-0.9249-2.7856-1.6233-4.3233-2.0721-0.3846-0.1144-0.7498-0.2123-1.1399-0.2973-0.1682 1.8465-1.7209 3.2936-3.6112 3.2936-1.8861 0-3.4364-1.4405-3.6104-3.281-0.3662 0.081-0.7343 0.1775-1.0943 0.2847-1.5377 0.4488-3.0054 1.1472-4.3232 2.0721-1.3117 0.9298-2.4709 2.1036-3.3125 3.4991-0.4238 0.6941-0.7668 1.4431-1.0051 2.2293-0.1198 0.3927-0.2131 0.7945-0.2795 1.2017-0.07 0.4068-0.1122 0.8194-0.1271 1.2339-0.071-1.6625 0.3701-3.3409 1.1657-4.8117 0.8059-1.4713 1.9603-2.7335 3.2948-3.7285 1.3327-1.0034 2.8496-1.7376 4.4301-2.2335 0.3985-0.1231 0.8365-0.2388 1.2425-0.33 0.1223-1.892 1.6961-3.3893 3.619-3.3893zm2.4527 5.0741c0.026-0.043 0.05-0.087 0.074-0.1322 0.07-0.1398 0.129-0.2863 0.1763-0.438 0.058-0.1853 0.098-0.3786 0.1191-0.5779h-0.9732c-0.015 0.2044-0.039 0.4045-0.073 0.5992-0.033 0.1885-0.074 0.3729-0.1229 0.5518zm-3.7051-0.5818c0.038 0.1931 0.086 0.3866 0.1448 0.5804h0.8594v-1.1411l-1.0835 0.01c0.017 0.1858 0.043 0.3717 0.079 0.5572zm-1.2241 0.5818c-0.026-0.043-0.05-0.087-0.074-0.1322-0.07-0.1398-0.129-0.2863-0.1763-0.438-0.058-0.1853-0.098-0.3786-0.119-0.5779h0.9731c0.015 0.2044 0.039 0.4045 0.073 0.5992 0.032 0.1885 0.074 0.3729 0.123 0.5518zm1.2686 1.156c-0.3157-0.1488-0.6004-0.3527-0.8417-0.5992h0.5536c0.057 0.1443 0.1193 0.2827 0.1862 0.4144l2e-4 -1e-4c0.033 0.065 0.067 0.1277 0.1017 0.1894zm0.9583 0.2628c-0.086-0.01-0.1702-0.02-0.2535-0.035-0.078-0.1354-0.1497-0.2707-0.2165-0.4059-0.07-0.1412-0.1341-0.2828-0.1924-0.4242l0.6624 3e-4zm0.7974-0.032c-0.083 0.015-0.1668 0.026-0.2518 0.034v-0.8666l0.6623-3e-4c-0.058 0.1414-0.1223 0.283-0.1921 0.4243-0.067 0.1362-0.1404 0.2725-0.2184 0.409zm1.5634-0.8296c-0.2466 0.252-0.5384 0.4592-0.8624 0.6088 0.037-0.065 0.073-0.1311 0.1074-0.1991l1e-4 1e-4c0.067-0.1317 0.1291-0.2701 0.18621-0.4144zm-0.9571-0.5583c0.059-0.1938 0.1072-0.3872 0.1448-0.5804 0.036-0.1855 0.062-0.3714 0.079-0.5572l-1.0836-0.01v1.1411zm1.2986-2.8509c0.026 0.043 0.05 0.087 0.074 0.1323 0.07 0.1398 0.129 0.2862 0.1763 0.438 0.058 0.1852 0.098 0.3786 0.1191 0.5779h-0.9732c-0.015-0.2044-0.039-0.4045-0.073-0.5992-0.033-0.1885-0.074-0.3729-0.12289-0.5519zm-3.7051 0.5819c0.038-0.1931 0.086-0.3867 0.1448-0.5804h0.8594v1.1412l-1.0835-0.01c0.017-0.1859 0.043-0.3717 0.079-0.5572zm-1.2241-0.5819c-0.026 0.043-0.05 0.087-0.074 0.1323-0.07 0.1398-0.129 0.2862-0.1763 0.438-0.058 0.1852-0.098 0.3786-0.119 0.5779h0.9731c0.015-0.2044 0.039-0.4045 0.073-0.5992 0.032-0.1885 0.074-0.3729 0.123-0.5519zm1.2686-1.1559c-0.3157 0.1488-0.6004 0.3527-0.8417 0.5992h0.5536c0.057-0.1443 0.1193-0.2827 0.1862-0.4144l2e-4 1e-4c0.033-0.065 0.067-0.1277 0.1017-0.1894zm0.9583-0.2628c-0.086 0.01-0.17019 0.02-0.2535 0.035-0.078 0.1354-0.1497 0.2707-0.2165 0.4058-0.07 0.1413-0.13409 0.2829-0.19239 0.4243l0.66239-3e-4zm0.79741 0.032c-0.083-0.015-0.1668-0.026-0.2518-0.034v0.8666l0.66229 3e-4c-0.058-0.1415-0.1223-0.283-0.1921-0.4243-0.067-0.1362-0.1404-0.2726-0.2184-0.409zm1.5634 0.8296c-0.2466-0.252-0.5384-0.4592-0.8624-0.6088 0.037 0.065 0.073 0.1311 0.1074 0.1991l1e-4 -1e-4c0.067 0.1317 0.1291 0.2701 0.1862 0.4144zm-0.9571 0.5583c0.059 0.1937 0.1072 0.3872 0.1448 0.5804 0.036 0.1855 0.062 0.3713 0.079 0.5572l-1.0836 0.01v-1.1412zm-24.338 20.75c0 0.086 0.067 0.1529 0.1529 0.1529 0.083 0 0.1556-0.067 0.1556-0.1529v-1.6395c0-0.086-0.072-0.1529-0.1556-0.1529-0.086 0-0.1529 0.067-0.1529 0.1529zm1.2345-1.2365c-0.1083 0-0.2112 0.033-0.2946 0.086-0.025-0.053-0.078-0.086-0.1361-0.086-0.083 0-0.1473 0.067-0.1473 0.1472v1.0949c0 0.081 0.064 0.1473 0.1473 0.1473 0.072 0 0.1333-0.053 0.1473-0.1195 0.01-0.011 0.01-0.019 0.01-0.028v-0.6642c0-0.1556 0.1223-0.2806 0.2779-0.2806 0.1584 0 0.289 0.125 0.289 0.2806v0.6642c0 0.081 0.069 0.1473 0.1473 0.1473 0.081 0 0.1445-0.067 0.1445-0.1473v-0.6642c0-0.314-0.2584-0.5779-0.5808-0.5779zm2.2266 0.7002v-0.553c0-0.081-0.064-0.1472-0.1473-0.1472-0.072 0-0.1335 0.05-0.1473 0.1166-0.1001-0.072-0.2279-0.1166-0.3724-0.1166-0.1834 0-0.3529 0.081-0.4724 0.2055-0.1195 0.1307-0.1945 0.303-0.1945 0.4947 0 0.1945 0.075 0.3668 0.1945 0.4891 0.1195 0.1306 0.289 0.2112 0.4724 0.2112 0.1362 0 0.264-0.042 0.364-0.1112-0.036 0.1705-0.1833 0.3002-0.364 0.3002-0.058 0-0.1111-0.014-0.1584-0.039-0.078-0.034-0.164-0.01-0.2001 0.07-0.039 0.075-0.01 0.1668 0.067 0.2001 0.086 0.044 0.189 0.069 0.2918 0.069 0.3696 0 0.667-0.3029 0.667-0.6697v-0.5169zm-0.403 0.2862c-0.072 0.075-0.1584 0.114-0.264 0.114-0.097 0-0.189-0.039-0.2556-0.114-0.067-0.064-0.1112-0.1695-0.1112-0.2862 0-0.1112 0.044-0.2167 0.1112-0.2834 0.067-0.078 0.1583-0.1195 0.2556-0.1195 0.1056 0 0.1917 0.042 0.264 0.1195 0.061 0.067 0.1056 0.1722 0.1056 0.2834 0 0.1167-0.044 0.2223-0.1056 0.2862zm1.4346 0.403c0.1973 0 0.3612-0.058 0.4973-0.1835 0.064-0.058 0.036-0.1417 0-0.1805-0.036-0.045-0.15-0.053-0.2083 0.01-0.07 0.053-0.189 0.078-0.289 0.069-0.097-0.01-0.2085-0.058-0.2668-0.125-0.05-0.047-0.081-0.1195-0.094-0.1834h0.8837c0.078 0 0.1362-0.044 0.1445-0.1111v-0.039c-0.022-0.3751-0.3084-0.6446-0.6696-0.6446-0.3808 0-0.6754 0.3167-0.6781 0.6946 0 0.378 0.2973 0.692 0.6781 0.6948zm0-1.1255c0.2417 0.019 0.3834 0.1834 0.4112 0.2946h-0.7864c0.022-0.114 0.1389-0.2835 0.3752-0.2946zm1.5484-0.2639c-0.1083 0-0.2112 0.033-0.2945 0.086-0.025-0.053-0.078-0.086-0.1362-0.086-0.083 0-0.1473 0.067-0.1473 0.1472v1.0949c0 0.081 0.064 0.1473 0.1473 0.1473 0.072 0 0.1334-0.053 0.1473-0.1195 0.01-0.011 0.01-0.019 0.01-0.028v-0.6642c0-0.1556 0.1222-0.2806 0.2778-0.2806 0.1584 0 0.289 0.125 0.289 0.2806v0.6642c0 0.081 0.07 0.1473 0.1473 0.1473 0.081 0 0.1446-0.067 0.1446-0.1473v-0.6642c0-0.314-0.2585-0.5779-0.5809-0.5779zm1.1373 0c-0.083 0-0.1501 0.064-0.1501 0.1529v1.0837c0 0.083 0.067 0.1501 0.1501 0.1501 0.086 0 0.15-0.067 0.15-0.1501v-1.0837c0-0.089-0.064-0.1529-0.15-0.1529zm0.15-0.4084c0-0.083-0.064-0.1501-0.15-0.1501-0.083 0-0.1501 0.067-0.1501 0.1501v0.058c0 0.083 0.067 0.1528 0.1501 0.1528 0.086 0 0.15-0.069 0.15-0.1528zm0.9177 1.7951c0.1973 0 0.3612-0.058 0.4974-0.1834 0.064-0.058 0.036-0.1418 0-0.1806-0.036-0.044-0.15-0.053-0.2084 0.01-0.07 0.053-0.189 0.078-0.289 0.069-0.097-0.01-0.2084-0.058-0.2668-0.1251-0.05-0.047-0.081-0.1194-0.094-0.1834h0.8837c0.078 0 0.1362-0.044 0.1445-0.1111v-0.039c-0.022-0.3752-0.3085-0.6447-0.6697-0.6447-0.3807 0-0.6753 0.3167-0.6781 0.6947 0 0.3779 0.2974 0.6919 0.6781 0.6947zm0-1.1255c0.2418 0.019 0.3835 0.1835 0.4112 0.2946h-0.7864c0.022-0.1139 0.139-0.2834 0.3752-0.2946zm1.6207-0.2612c-0.1389 0-0.2584 0.047-0.3501 0.1084-0.019 0.014-0.042 0.036-0.058 0.056v-0.02c0-0.081-0.07-0.1445-0.1529-0.1445-0.081 0-0.1473 0.064-0.1473 0.1445v1.0949c0 0.081 0.067 0.1473 0.1473 0.1473 0.083 0 0.1529-0.067 0.1529-0.1473v-0.5279c0.014-0.039 0.047-0.1445 0.1139-0.2335 0.033-0.053 0.075-0.1 0.1278-0.1334 0.047-0.036 0.1028-0.053 0.1667-0.053 0.083 0 0.1473-0.069 0.1473-0.1473 0-0.081-0.064-0.1445-0.1473-0.1445zm0.4008 0c-0.083 0-0.1501 0.064-0.1501 0.1529v1.0837c0 0.083 0.067 0.1501 0.1501 0.1501 0.086 0 0.1501-0.067 0.1501-0.1501v-1.0837c0-0.089-0.064-0.1529-0.1501-0.1529zm0.1501-0.1973c0.078 0 0.1305-0.014 0.1972-0.075l0.1862-0.1779c0.028-0.025 0.047-0.053 0.047-0.083 0-0.053-0.1112-0.1084-0.2001-0.1084-0.058 0-0.1028 0.031-0.1334 0.081l-0.1584 0.2445c-0.011 0.017-0.022 0.042-0.022 0.061 0 0.036 0.036 0.058 0.083 0.058zm1.6346 0.3446c0-0.083-0.067-0.15-0.1473-0.15-0.072 0-0.1278 0.053-0.1445 0.1222-0.1056-0.075-0.2307-0.1222-0.3696-0.1222-0.1889 0-0.3529 0.081-0.4724 0.2084-0.1195 0.125-0.189 0.2973-0.189 0.489 0 0.1891 0.07 0.3613 0.189 0.4891 0.1195 0.1251 0.2835 0.2029 0.4724 0.2029 0.1389 0 0.264-0.044 0.3696-0.1195 0.017 0.067 0.072 0.1195 0.1445 0.1195 0.081 0 0.1473-0.067 0.1473-0.1473v-0.5447zm-0.403 0.8337c-0.067 0.069-0.1611 0.1083-0.2584 0.1083-0.1 0-0.1945-0.039-0.2584-0.1083-0.067-0.072-0.1056-0.1723-0.1056-0.2863 0-0.1167 0.039-0.2167 0.1056-0.2862 0.064-0.075 0.1584-0.1139 0.2584-0.1139 0.097 0 0.1917 0.039 0.2584 0.1139 0.067 0.069 0.1084 0.1695 0.1084 0.2862 0 0.114-0.042 0.2141-0.1084 0.2863zm2.221 0.4057c0.1973 0 0.3613-0.058 0.4974-0.1834 0.064-0.058 0.036-0.1418 0-0.1806-0.036-0.044-0.15-0.053-0.2084 0.01-0.07 0.053-0.189 0.078-0.289 0.069-0.097-0.01-0.2084-0.058-0.2668-0.1251-0.05-0.047-0.081-0.1194-0.094-0.1834h0.8837c0.078 0 0.1362-0.044 0.1445-0.1111v-0.039c-0.022-0.3752-0.3084-0.6447-0.6697-0.6447-0.3807 0-0.6753 0.3167-0.6781 0.6947 0 0.3779 0.2974 0.6919 0.6781 0.6947zm0-1.1255c0.2417 0.019 0.3835 0.1835 0.4113 0.2946h-0.7864c0.022-0.1139 0.1389-0.2834 0.3751-0.2946zm1.5485-0.2639c-0.1084 0-0.2112 0.033-0.2946 0.086-0.025-0.053-0.078-0.086-0.1361-0.086-0.083 0-0.1473 0.067-0.1473 0.1472v1.0949c0 0.081 0.064 0.1473 0.1473 0.1473 0.072 0 0.1333-0.053 0.1473-0.1195 0.01-0.011 0.01-0.019 0.01-0.028v-0.6642c0-0.1556 0.1222-0.2806 0.2779-0.2806 0.1584 0 0.289 0.125 0.289 0.2806v0.6642c0 0.081 0.069 0.1473 0.1473 0.1473 0.081 0 0.1445-0.067 0.1445-0.1473v-0.6642c0-0.314-0.2584-0.5779-0.5808-0.5779zm1.8681 1.2365c0 0.086 0.067 0.1529 0.1528 0.1529 0.083 0 0.1556-0.067 0.1556-0.1529v-1.6394c0-0.086-0.072-0.1529-0.1556-0.1529-0.086 0-0.1528 0.067-0.1528 0.1529zm1.2344-1.2365c-0.1083 0-0.2112 0.033-0.2946 0.086-0.025-0.053-0.078-0.086-0.1361-0.086-0.083 0-0.1473 0.067-0.1473 0.1472v1.0949c0 0.081 0.064 0.1473 0.1473 0.1473 0.072 0 0.1333-0.053 0.1473-0.1195 0.01-0.011 0.01-0.019 0.01-0.028v-0.6642c0-0.1556 0.1223-0.2806 0.2779-0.2806 0.1584 0 0.289 0.125 0.289 0.2806v0.6642c0 0.081 0.07 0.1473 0.1473 0.1473 0.081 0 0.1445-0.067 0.1445-0.1473v-0.6642c0-0.314-0.2584-0.5779-0.5808-0.5779zm1.4651-0.2321s0.01-0.01 0.017-0.01c0.011-0.01 0.036-0.01 0.072-0.01 0.083 0 0.1528-0.069 0.1528-0.1546 0-0.083-0.07-0.1524-0.1528-0.1524-0.058 0-0.1112 0.01-0.1668 0.022-0.083 0.025-0.1611 0.088-0.2 0.1714-0.042 0.08-0.053 0.1685-0.053 0.2709v0.038h-0.072c-0.086 0-0.1556 0.067-0.1556 0.1529 0 0.083 0.069 0.1529 0.1556 0.1529h0.072v0.9832c0 0.083 0.067 0.1533 0.1528 0.1533 0.086 0 0.1528-0.07 0.1528-0.1533v-0.9832h0.083c0.083 0 0.1528-0.07 0.1528-0.1529 0-0.086-0.069-0.1529-0.1528-0.1529h-0.083v-0.038c0-0.1024 0.022-0.1408 0.025-0.1408zm0.9566 1.6299c0.1834 0 0.3502-0.081 0.4641-0.2113 0.125-0.1223 0.1945-0.2946 0.1945-0.4891 0-0.1889-0.07-0.3529-0.1945-0.4863-0.1139-0.1305-0.2807-0.2111-0.4641-0.2111-0.1917 0-0.3529 0.081-0.4779 0.2111-0.1195 0.1334-0.1918 0.2974-0.1918 0.4863 0 0.1945 0.072 0.3668 0.1918 0.4891 0.125 0.1307 0.2862 0.2113 0.4779 0.2113zm-0.2668-0.9894c0.07-0.061 0.1613-0.1055 0.2668-0.1055 0.097 0 0.1862 0.044 0.2557 0.1055 0.069 0.075 0.1083 0.1751 0.1083 0.289 0 0.1195-0.039 0.2169-0.1083 0.2946-0.07 0.067-0.1585 0.1028-0.2557 0.1028-0.1055 0-0.1973-0.036-0.2668-0.1028-0.064-0.078-0.1-0.1751-0.1-0.2946 0-0.1139 0.036-0.2139 0.1-0.289zm1.9097-0.4057c-0.1389 0-0.2584 0.047-0.3502 0.1084-0.019 0.014-0.042 0.036-0.058 0.056v-0.02c0-0.081-0.07-0.1445-0.1529-0.1445-0.081 0-0.1473 0.064-0.1473 0.1445v1.0949c0 0.081 0.067 0.1473 0.1473 0.1473 0.083 0 0.1529-0.067 0.1529-0.1473v-0.5279c0.014-0.039 0.047-0.1445 0.1139-0.2335 0.033-0.053 0.075-0.1 0.1278-0.1334 0.047-0.036 0.1028-0.053 0.1667-0.053 0.083 0 0.1473-0.069 0.1473-0.1473 0-0.081-0.064-0.1445-0.1473-0.1445zm1.8208 0.2946c0.1528 0 0.2807 0.1278 0.2807 0.2862v0.6586c0 0.081 0.069 0.1473 0.15 0.1473s0.1473-0.067 0.1473-0.1473v-0.6586c0-0.3224-0.2584-0.5835-0.578-0.5835-0.1751 0-0.3335 0.072-0.4363 0.1917-0.1056-0.1195-0.2612-0.1917-0.4362-0.1917-0.1057 0-0.2085 0.03-0.2974 0.083-0.022-0.053-0.075-0.083-0.1334-0.083-0.081 0-0.1473 0.064-0.1473 0.15v1.0893c0 0.075 0.053 0.1307 0.11949 0.1473h0.028c0.058 0 0.1139-0.039 0.13901-0.089v-0.014c0.01-0.01 0.01-0.011 0.01-0.017v-0.6876c0-0.1584 0.1278-0.2862 0.2807-0.2862 0.1555 0 0.2834 0.125 0.2862 0.2778v0.6686c0 0.081 0.072 0.1473 0.15001 0.1473 0.081 0 0.1473-0.067 0.1473-0.1473v-0.6686c0.01-0.1528 0.13059-0.2778 0.28899-0.2778zm2.2905-0.1473c0-0.083-0.067-0.15-0.1473-0.15-0.072 0-0.1279 0.053-0.1445 0.1222-0.1056-0.075-0.2307-0.1222-0.3696-0.1222-0.189 0-0.3529 0.081-0.4725 0.2084-0.1194 0.125-0.1889 0.2973-0.1889 0.489 0 0.1891 0.07 0.3613 0.1889 0.4891 0.1196 0.1251 0.2835 0.2029 0.4725 0.2029 0.1389 0 0.264-0.044 0.3696-0.1195 0.017 0.067 0.072 0.1195 0.1445 0.1195 0.081 0 0.1473-0.067 0.1473-0.1473v-0.5447zm-0.403 0.8337c-0.067 0.069-0.1612 0.1083-0.2584 0.1083-0.1001 0-0.1945-0.039-0.2584-0.1083-0.067-0.072-0.1056-0.1723-0.1056-0.2863 0-0.1167 0.039-0.2167 0.1056-0.2862 0.064-0.075 0.1583-0.1139 0.2584-0.1139 0.097 0 0.1917 0.039 0.2584 0.1139 0.067 0.069 0.1084 0.1695 0.1084 0.2862 0 0.114-0.042 0.2141-0.1084 0.2863zm-0.1139-1.1783c0.078 0 0.1306-0.014 0.1973-0.075l0.1861-0.1779c0.028-0.025 0.047-0.053 0.047-0.083 0-0.053-0.1111-0.1084-0.2-0.1084-0.058 0-0.1029 0.031-0.1335 0.081l-0.1583 0.2445c-0.011 0.017-0.022 0.042-0.022 0.061 0 0.036 0.036 0.058 0.083 0.058zm1.2011 0.1946h-0.07v-0.4029c0-0.086-0.067-0.1529-0.1529-0.1529-0.086 0-0.1555 0.067-0.1555 0.1529v0.4029h-0.081c-0.086 0-0.1529 0.067-0.1529 0.1528 0 0.083 0.067 0.1528 0.1529 0.1528h0.081v0.7753c0 0.1696 0.1389 0.3085 0.3084 0.3085 0.086 0 0.1529-0.067 0.1529-0.1529 0-0.086-0.067-0.1556-0.1529-0.1556v-0.7753h0.07c0.083 0 0.1556-0.07 0.1556-0.1528 0-0.086-0.072-0.1528-0.1556-0.1528zm0.6537 0c-0.083 0-0.1501 0.064-0.1501 0.1529v1.0837c0 0.083 0.067 0.1501 0.1501 0.1501 0.086 0 0.15-0.067 0.15-0.1501v-1.0837c0-0.089-0.064-0.1529-0.15-0.1529zm0.15-0.4084c0-0.083-0.064-0.1501-0.15-0.1501-0.083 0-0.1501 0.067-0.1501 0.1501v0.058c0 0.083 0.067 0.1528 0.1501 0.1528 0.086 0 0.15-0.069 0.15-0.1528zm0.9455 1.7951c0.1667 0 0.3223-0.061 0.4418-0.1473 0.064-0.055 0.075-0.1445 0.03-0.2056-0.055-0.067-0.1472-0.078-0.2083-0.031-0.072 0.053-0.164 0.089-0.264 0.089-0.2251 0-0.4113-0.1833-0.4113-0.3973s0.1862-0.4002 0.4113-0.4002c0.1028 0 0.1917 0.036 0.264 0.089 0.064 0.05 0.1528 0.039 0.2083-0.028 0.045-0.061 0.033-0.1557-0.03-0.2057-0.1195-0.092-0.2751-0.1528-0.4418-0.1528-0.3835 0-0.7059 0.3112-0.7059 0.6975 0 0.3807 0.3224 0.6919 0.7059 0.6919zm2.0125-1.2394c0-0.083-0.067-0.15-0.1472-0.15-0.072 0-0.1278 0.053-0.1445 0.1222-0.1056-0.075-0.2307-0.1222-0.3696-0.1222-0.189 0-0.353 0.081-0.4724 0.2084-0.1195 0.125-0.189 0.2973-0.189 0.4891 0 0.189 0.069 0.3613 0.189 0.4891 0.1194 0.125 0.2834 0.2028 0.4724 0.2028 0.1389 0 0.264-0.044 0.3696-0.1195 0.017 0.067 0.072 0.1195 0.1445 0.1195 0.081 0 0.1472-0.067 0.1472-0.1473v-0.5446zm-0.4029 0.8337c-0.067 0.069-0.1612 0.1084-0.2584 0.1084-0.1 0-0.1945-0.039-0.2585-0.1084-0.067-0.072-0.1056-0.1723-0.1056-0.2862 0-0.1168 0.039-0.2167 0.1056-0.2863 0.064-0.075 0.1585-0.1139 0.2585-0.1139 0.097 0 0.1917 0.039 0.2584 0.1139 0.067 0.07 0.1083 0.1695 0.1083 0.2863 0 0.1139-0.042 0.214-0.1083 0.2862zm2.5378-0.9837c-0.083 0-0.1445 0.064-0.1445 0.1477v0.6577c0 0.1617-0.1279 0.2839-0.2862 0.2839-0.1585 0-0.2891-0.1222-0.2891-0.2839v-0.6577c0-0.083-0.061-0.1477-0.1472-0.1477-0.075 0-0.1446 0.064-0.1446 0.1477v0.6577c0 0.32 0.2613 0.584 0.5809 0.584 0.092 0 0.1861-0.022 0.2639-0.067-0.044 0.1431-0.1834 0.2474-0.3473 0.2502-0.056 0-0.1084-0.014-0.1612-0.038-0.067-0.036-0.1612-0.01-0.1973 0.061-0.033 0.078-0.01 0.1639 0.072 0.1973 0.083 0.042 0.1861 0.07 0.2862 0.07 0.3696 0 0.6641-0.2918 0.6641-0.6614v-1.0528c0-0.083-0.069-0.1477-0.15-0.1477zm1.4206 1.1116c0.1584 0.125 0.4113 0.275 0.7114 0.2778 0.1974 0 0.3779-0.058 0.5141-0.1583 0.139-0.1001 0.239-0.253 0.239-0.4312 0-0.086-0.025-0.17-0.067-0.2367-0.064-0.1034-0.164-0.1756-0.2779-0.2311-0.1112-0.053-0.2417-0.089-0.3834-0.1172h-0.01c-0.1501-0.028-0.2752-0.072-0.3474-0.1223-0.036-0.025-0.061-0.051-0.075-0.073s-0.02-0.044-0.02-0.078c0-0.058 0.031-0.1199 0.1056-0.1755 0.075-0.056 0.1862-0.095 0.3113-0.095 0.1695 0 0.3056 0.083 0.4474 0.1778 0.067 0.045 0.1556 0.026 0.1973-0.042 0.044-0.064 0.025-0.1528-0.039-0.1973-0.1417-0.092-0.339-0.2223-0.6057-0.2223-0.1807 0-0.3502 0.053-0.4808 0.1473-0.1278 0.094-0.2223 0.239-0.2223 0.4062 0 0.083 0.022 0.1616 0.064 0.2284 0.061 0.097 0.1529 0.1671 0.2585 0.2171 0.1055 0.05 0.2278 0.083 0.3584 0.1089h0.01c0.1639 0.031 0.3001 0.078 0.3807 0.1306 0.042 0.028 0.067 0.056 0.083 0.084 0.017 0.028 0.025 0.053 0.025 0.089 0 0.069-0.036 0.1394-0.1195 0.2005-0.083 0.061-0.2084 0.1028-0.3474 0.1028-0.1973 0-0.4085-0.1139-0.5307-0.2145-0.061-0.05-0.1529-0.042-0.2029 0.02-0.047 0.062-0.039 0.1533 0.022 0.2034zm1.8736-1.1089c-0.083 0-0.1501 0.064-0.1501 0.1529v1.0837c0 0.083 0.067 0.1501 0.1501 0.1501 0.086 0 0.15-0.067 0.15-0.1501v-1.0837c0-0.089-0.064-0.1529-0.15-0.1529zm0.15-0.4084c0-0.083-0.064-0.1501-0.15-0.1501-0.083 0-0.1501 0.067-0.1501 0.1501v0.058c0 0.083 0.067 0.1528 0.1501 0.1528 0.086 0 0.15-0.069 0.15-0.1528zm0.2897 1.6034c0.1112 0.089 0.2779 0.1889 0.4946 0.1917 0.1363 0 0.2613-0.042 0.3613-0.1111 0.1-0.072 0.1751-0.1862 0.1751-0.3224 0-0.064-0.019-0.1278-0.053-0.1834-0.047-0.078-0.1223-0.1306-0.1974-0.164-0.081-0.039-0.1667-0.064-0.2584-0.081-0.095-0.017-0.1668-0.042-0.2029-0.067-0.02-0.011-0.028-0.022-0.031-0.028-0.01-0.01-0.01-0.011-0.01-0.022 0-0.014 0.01-0.039 0.044-0.064 0.036-0.028 0.097-0.05 0.1668-0.05 0.089 0 0.1667 0.044 0.2556 0.1029 0.07 0.047 0.1612 0.028 0.2056-0.039 0.042-0.07 0.022-0.1612-0.044-0.2057-0.089-0.061-0.2251-0.1528-0.4168-0.1528-0.1279 0-0.2446 0.036-0.3419 0.1028-0.092 0.069-0.1639 0.1779-0.1639 0.3057 0 0.064 0.017 0.125 0.047 0.175 0.05 0.075 0.1166 0.1251 0.1917 0.1613 0.072 0.033 0.1556 0.056 0.2417 0.072 0.1001 0.019 0.1834 0.05 0.2224 0.078 0.022 0.014 0.033 0.025 0.036 0.033 0.01 0.01 0.01 0.014 0.01 0.028 0 0.022-0.011 0.05-0.05 0.083-0.044 0.028-0.1139 0.053-0.189 0.053-0.1084 0-0.2334-0.061-0.3056-0.1223-0.061-0.053-0.1584-0.044-0.2085 0.022-0.05 0.061-0.042 0.1556 0.02 0.2057zm1.7847-1.1977h-0.069v-0.4029c0-0.086-0.067-0.1529-0.1528-0.1529-0.086 0-0.1556 0.067-0.1556 0.1529v0.4029h-0.081c-0.086 0-0.1528 0.067-0.1528 0.1528 0 0.083 0.067 0.1529 0.1528 0.1529h0.081v0.7753c0 0.1695 0.1389 0.3084 0.3084 0.3084 0.086 0 0.1529-0.067 0.1529-0.1528 0-0.086-0.067-0.1556-0.1529-0.1556v-0.7753h0.069c0.083 0 0.1556-0.07 0.1556-0.1529 0-0.086-0.072-0.1528-0.1556-0.1528zm0.9705 1.3894c0.1973 0 0.3612-0.058 0.4974-0.1834 0.064-0.058 0.036-0.1417 0-0.1806-0.036-0.044-0.1501-0.053-0.2084 0.01-0.07 0.053-0.189 0.078-0.289 0.069-0.097-0.01-0.2085-0.058-0.2668-0.1251-0.05-0.047-0.081-0.1194-0.094-0.1833h0.8837c0.078 0 0.1362-0.044 0.1445-0.1112v-0.039c-0.022-0.3752-0.3085-0.6447-0.6697-0.6447-0.3807 0-0.6753 0.3167-0.6781 0.6947 0 0.3779 0.2974 0.6919 0.6781 0.6947zm0-1.1254c0.2417 0.019 0.3834 0.1834 0.4112 0.2945h-0.7864c0.022-0.1139 0.139-0.2834 0.3752-0.2945zm2.421 0.033c0.1529 0 0.2807 0.1279 0.2807 0.2862v0.6586c0 0.081 0.069 0.1473 0.15 0.1473s0.1473-0.067 0.1473-0.1473v-0.6586c0-0.3223-0.2584-0.5835-0.578-0.5835-0.1751 0-0.3334 0.072-0.4363 0.1917-0.1056-0.1195-0.2612-0.1917-0.4363-0.1917-0.1056 0-0.2084 0.03-0.2973 0.083-0.022-0.053-0.075-0.083-0.1334-0.083-0.081 0-0.1473 0.064-0.1473 0.15v1.0893c0 0.075 0.053 0.1307 0.1195 0.1473h0.028c0.058 0 0.1139-0.039 0.139-0.089v-0.014c0.01-0.01 0.01-0.011 0.01-0.017v-0.6886c0-0.1583 0.1278-0.2862 0.2806-0.2862 0.1556 0 0.2835 0.1251 0.2863 0.2779v0.6686c0 0.081 0.072 0.1473 0.15 0.1473 0.081 0 0.1473-0.067 0.1473-0.1473v-0.6686c0.01-0.1528 0.1306-0.2779 0.289-0.2779zm2.2266-0.1473c0-0.083-0.067-0.15-0.1473-0.15-0.072 0-0.1278 0.053-0.1445 0.1222-0.1056-0.075-0.2307-0.1222-0.3696-0.1222-0.189 0-0.353 0.081-0.4724 0.2084-0.1195 0.125-0.189 0.2973-0.189 0.4891 0 0.189 0.07 0.3613 0.189 0.4891 0.1194 0.125 0.2834 0.2028 0.4724 0.2028 0.1389 0 0.264-0.044 0.3696-0.1195 0.017 0.067 0.072 0.1195 0.1445 0.1195 0.081 0 0.1473-0.067 0.1473-0.1473v-0.5446zm-0.403 0.8337c-0.067 0.069-0.1611 0.1084-0.2584 0.1084-0.1 0-0.1945-0.039-0.2585-0.1084-0.067-0.072-0.1055-0.1723-0.1055-0.2862 0-0.1168 0.039-0.2167 0.1055-0.2863 0.064-0.075 0.1585-0.1139 0.2585-0.1139 0.097 0 0.1917 0.039 0.2584 0.1139 0.067 0.07 0.1084 0.1695 0.1084 0.2863 0 0.1139-0.042 0.214-0.1084 0.2862zm0.7593 0.214c0.1112 0.089 0.2779 0.1889 0.4946 0.1917 0.1362 0 0.2612-0.042 0.3613-0.1111 0.1-0.072 0.1751-0.1862 0.1751-0.3224 0-0.064-0.019-0.1278-0.053-0.1834-0.047-0.078-0.1222-0.1306-0.1973-0.164-0.081-0.039-0.1667-0.064-0.2584-0.081-0.095-0.017-0.1668-0.042-0.2029-0.067-0.02-0.011-0.028-0.022-0.031-0.028-0.01-0.01-0.01-0.011-0.01-0.022 0-0.014 0.01-0.039 0.044-0.064 0.036-0.028 0.097-0.05 0.1668-0.05 0.089 0 0.1667 0.044 0.2556 0.1029 0.07 0.047 0.1612 0.028 0.2056-0.039 0.042-0.07 0.022-0.1612-0.044-0.2057-0.089-0.061-0.2251-0.1528-0.41679-0.1528-0.12791 0-0.2446 0.036-0.34191 0.1028-0.092 0.069-0.1639 0.1779-0.1639 0.3057 0 0.064 0.017 0.125 0.047 0.175 0.05 0.075 0.1166 0.1251 0.1917 0.1613 0.072 0.033 0.1555 0.056 0.2417 0.072 0.1001 0.019 0.1834 0.05 0.2224 0.078 0.022 0.014 0.033 0.025 0.036 0.033 0.01 0.01 0.01 0.014 0.01 0.028 0 0.022-0.011 0.05-0.05 0.083-0.044 0.028-0.114 0.053-0.189 0.053-0.1084 0-0.2334-0.061-0.3057-0.1223-0.061-0.053-0.1583-0.044-0.2084 0.022-0.05 0.061-0.042 0.1556 0.02 0.2057zm-24.745 2.2887v-0.9892c0-0.086-0.067-0.1529-0.1528-0.1529-0.086 0-0.1556 0.067-0.1556 0.1529v0.9892c0 0.2724-0.2196 0.4947-0.4947 0.4947-0.2723 0-0.4946-0.2223-0.4946-0.4947v-0.9892c0-0.086-0.072-0.1529-0.1557-0.1529-0.086 0-0.1528 0.067-0.1528 0.1529v0.9892c0 0.4419 0.3557 0.8031 0.8031 0.8031 0.4446 0 0.8031-0.3612 0.8031-0.8031zm0.7759-0.5029 0.8893 1.2338c0 0.01 0.01 0.011 0.014 0.017 0.028 0.033 0.069 0.056 0.1139 0.056 0.083 0 0.1528-0.07 0.1528-0.1528v-1.6145c0-0.081-0.069-0.1501-0.1528-0.1501-0.083 0-0.1501 0.069-0.1501 0.1501v1.1449l-0.8976-1.2422c-0.047-0.067-0.1417-0.081-0.2111-0.033-0.042 0.031-0.064 0.081-0.061 0.1279v1.6145c0 0.083 0.067 0.1528 0.1528 0.1528 0.081 0 0.1501-0.07 0.1501-0.1528zm1.6486 0.6363c-0.078 0.022-0.1251 0.1084-0.097 0.1918 0.089 0.2779 0.3501 0.4779 0.6558 0.4779 0.3807 0 0.6919-0.3084 0.6919-0.6891v-1.1032c0-0.086-0.07-0.1529-0.1528-0.1529-0.086 0-0.1556 0.067-0.1556 0.1529v1.1032c0 0.2084-0.1723 0.3807-0.3835 0.3807-0.1695 0-0.3141-0.1112-0.364-0.264-0.025-0.081-0.1112-0.1251-0.1945-0.097zm1.7096 0.6697h0.50189c0.328 0 0.5947-0.2668 0.5947-0.5974 0-0.2113-0.1139-0.3974-0.2807-0.503 0.067-0.089 0.1056-0.1973 0.1056-0.3168 0-0.2918-0.23609-0.528-0.52789-0.528h-0.3936c-0.083 0-0.1529 0.067-0.1529 0.1529v1.6395c0 0.083 0.069 0.1528 0.1529 0.1528zm0.1555-1.6367h0.2391c0.1222 0 0.2195 0.097 0.2195 0.2195 0 0.1222-0.097 0.2251-0.2195 0.2251h-0.2391zm0 0.7531h0.3474c0.1584 0 0.2863 0.1278 0.2863 0.2862 0 0.1611-0.1279 0.2862-0.2863 0.289h-0.3474zm2.1404 0.8836c0.2362 0 0.4557-0.081 0.6308-0.2167 0.028-0.02 0.044-0.042 0.053-0.067 0-0.01 0-0.01 0.01-0.014 0-0.017 0.01-0.028 0.01-0.047v-0.6141c0-0.089-0.072-0.1557-0.1612-0.1557h-0.5475c-0.086 0-0.1584 0.067-0.1584 0.1557 0 0.086 0.072 0.1583 0.1584 0.1583h0.3974v0.3808c-0.1111 0.064-0.2418 0.1055-0.3807 0.1055-0.2001 0-0.3752-0.075-0.5002-0.2028-0.1306-0.125-0.2084-0.2946-0.2084-0.478 0-0.189 0.078-0.3585 0.2084-0.4835 0.125-0.1279 0.3001-0.2029 0.5002-0.2029 0.1667 0 0.3196 0.058 0.4391 0.1501 0.069 0.056 0.1722 0.042 0.225-0.025 0.053-0.069 0.042-0.1723-0.031-0.225-0.1723-0.1362-0.3974-0.2168-0.6336-0.2168-0.5641 0-1.0254 0.4446-1.0254 1.0032 0 0.5558 0.4613 0.9976 1.0254 0.9976z" fill-rule="evenodd" stroke-width=".27305"/>
 </g>
</svg>
